<svg width="202" height="232" viewBox="0 0 202 232" fill="none" xmlns="http://www.w3.org/2000/svg">
<path d="M58.1818 72.7911H54.5455V80.9527H43.6364V72.7911H21.8182V80.9527H10.9091V72.7911H7.27273C3.26909 72.7911 0 76.4638 0 80.9527V129.922C0 134.411 3.26909 138.084 7.27273 138.084H58.1818C62.1818 138.084 65.4545 134.411 65.4545 129.922V80.9527C65.4545 76.4638 62.1818 72.7911 58.1818 72.7911ZM58.1818 129.922H7.27273V97.2759H58.1818V129.922ZM20 64.6295H12.7273V78.9123H20V64.6295ZM52.7273 64.6295H45.4545V78.9123H52.7273V64.6295Z" fill="black"/>
<line x1="21.0103" y1="112.717" x2="30.4648" y2="122.172" stroke="black" stroke-width="8"/>
<line x1="24.7546" y1="122.226" x2="43.6637" y2="102.583" stroke="black" stroke-width="8"/>
<line x1="101.318" y1="1.57382e-05" x2="101.316" y2="164.364" stroke="black" stroke-width="3"/>
<path d="M174.482 138.371L152.982 114.171V138.371H143.882V64.3706H152.982V107.871L174.082 83.5706H186.782L160.982 110.871L186.882 138.371H174.482Z" fill="black"/>
<path d="M56.15 231L45.4 218.9V231H40.85V194H45.4V215.75L55.95 203.6H62.3L49.4 217.25L62.35 231H56.15ZM64.8824 217.2C64.8824 214.4 65.4491 211.95 66.5824 209.85C67.7158 207.717 69.2658 206.067 71.2324 204.9C73.2324 203.733 75.4491 203.15 77.8824 203.15C80.2824 203.15 82.3658 203.667 84.1324 204.7C85.8991 205.733 87.2158 207.033 88.0824 208.6V203.6H92.6824V231H88.0824V225.9C87.1824 227.5 85.8324 228.833 84.0324 229.9C82.2658 230.933 80.1991 231.45 77.8324 231.45C75.3991 231.45 73.1991 230.85 71.2324 229.65C69.2658 228.45 67.7158 226.767 66.5824 224.6C65.4491 222.433 64.8824 219.967 64.8824 217.2ZM88.0824 217.25C88.0824 215.183 87.6658 213.383 86.8324 211.85C85.9991 210.317 84.8658 209.15 83.4324 208.35C82.0324 207.517 80.4824 207.1 78.7824 207.1C77.0824 207.1 75.5324 207.5 74.1324 208.3C72.7324 209.1 71.6158 210.267 70.7824 211.8C69.9491 213.333 69.5324 215.133 69.5324 217.2C69.5324 219.3 69.9491 221.133 70.7824 222.7C71.6158 224.233 72.7324 225.417 74.1324 226.25C75.5324 227.05 77.0824 227.45 78.7824 227.45C80.4824 227.45 82.0324 227.05 83.4324 226.25C84.8658 225.417 85.9991 224.233 86.8324 222.7C87.6658 221.133 88.0824 219.317 88.0824 217.25ZM110.571 226.8L119.071 203.6H123.921L113.171 231H107.871L97.1215 203.6H102.021L110.571 226.8ZM126.699 217.2C126.699 214.4 127.265 211.95 128.399 209.85C129.532 207.717 131.082 206.067 133.049 204.9C135.049 203.733 137.265 203.15 139.699 203.15C142.099 203.15 144.182 203.667 145.949 204.7C147.715 205.733 149.032 207.033 149.899 208.6V203.6H154.499V231H149.899V225.9C148.999 227.5 147.649 228.833 145.849 229.9C144.082 230.933 142.015 231.45 139.649 231.45C137.215 231.45 135.015 230.85 133.049 229.65C131.082 228.45 129.532 226.767 128.399 224.6C127.265 222.433 126.699 219.967 126.699 217.2ZM149.899 217.25C149.899 215.183 149.482 213.383 148.649 211.85C147.815 210.317 146.682 209.15 145.249 208.35C143.849 207.517 142.299 207.1 140.599 207.1C138.899 207.1 137.349 207.5 135.949 208.3C134.549 209.1 133.432 210.267 132.599 211.8C131.765 213.333 131.349 215.133 131.349 217.2C131.349 219.3 131.765 221.133 132.599 222.7C133.432 224.233 134.549 225.417 135.949 226.25C137.349 227.05 138.899 227.45 140.599 227.45C142.299 227.45 143.849 227.05 145.249 226.25C146.682 225.417 147.815 224.233 148.649 222.7C149.482 221.133 149.899 219.317 149.899 217.25Z" fill="black"/>
</svg>
